<?xml version="1.0" encoding="iso-8859-1"?>
<!-- Generator: Adobe Illustrator 19.0.0, SVG Export Plug-In . SVG Version: 6.00 Build 0)  -->
<svg version="1.1" id="Layer_1" xmlns="http://www.w3.org/2000/svg" xmlns:xlink="http://www.w3.org/1999/xlink" x="0px" y="0px"
	 viewBox="0 0 512.001 512.001" style="enable-background:new 0 0 512.001 512.001;" xml:space="preserve">
<path style="fill:#2FB4C2;" d="M286.404,86.769c4.792,0,8.677-3.885,8.677-8.677c0-4.792-3.885-8.677-8.677-8.677
	s-8.677,3.885-8.677,8.677C277.727,82.885,281.612,86.769,286.404,86.769z M321.11,86.769c4.792,0,8.677-3.885,8.677-8.677
	c0-4.792-3.885-8.677-8.677-8.677s-8.677,3.885-8.677,8.677C312.433,82.885,316.319,86.769,321.11,86.769z M216.992,86.769
	c4.792,0,8.677-3.885,8.677-8.677c0-4.792-3.885-8.677-8.677-8.677s-8.677,3.885-8.677,8.677
	C208.315,82.885,212.2,86.769,216.992,86.769z M243.021,78.092c0,4.792,3.885,8.677,8.677,8.677s8.677-3.885,8.677-8.677
	c0-4.792-3.885-8.677-8.677-8.677C246.906,69.416,243.021,73.301,243.021,78.092z M190.962,60.739h156.177v34.706H190.962V60.739z"
	/>
<path style="fill:#E0CBB5;" d="M177.775,17.358h182.206c11.883-0.192,21.67,9.286,21.862,21.168c0.002,0.116,0.003,0.233,0.003,0.35
	v112.795c0.192,11.883-9.286,21.67-21.168,21.862c-0.116,0.002-0.233,0.003-0.35,0.003h-65.247c-4.792,0-8.677,3.885-8.677,8.677
	V338.39c0,4.792,3.885,8.677,8.677,8.677h43.383v34.706h-43.383c-4.792,0-8.677,3.885-8.677,8.677v52.059
	c0,4.792,3.885,8.677,8.677,8.677h60.736v34.706H251.699V182.21c0-4.792-3.885-8.677-8.677-8.677h-65.247
	c-11.884,0-21.517-9.634-21.517-21.517V39.222c-0.192-11.883,9.286-21.67,21.168-21.862
	C177.541,17.359,177.658,17.358,177.775,17.358z M182.286,112.798h173.529c4.792,0,8.677-3.885,8.677-8.677V52.063
	c0-4.792-3.885-8.677-8.677-8.677H182.286c-4.792,0-8.677,3.885-8.677,8.677v52.059
	C173.609,108.914,177.494,112.798,182.286,112.798z"/>
<g>
	<circle style="fill:#42210B;" cx="321.111" cy="78.089" r="8.677"/>
	<circle style="fill:#42210B;" cx="286.407" cy="78.089" r="8.677"/>
	<circle style="fill:#42210B;" cx="251.704" cy="78.089" r="8.677"/>
	<circle style="fill:#42210B;" cx="216.989" cy="78.089" r="8.677"/>
	<path style="fill:#42210B;" d="M182.286,43.386h173.529c4.792,0,8.677,3.885,8.677,8.677v52.059c0,4.792-3.885,8.677-8.677,8.677
		H182.286c-4.792,0-8.677-3.885-8.677-8.677V52.063C173.609,47.271,177.494,43.386,182.286,43.386z M190.962,95.445h156.177V60.739
		H190.962V95.445z"/>
	<path style="fill:#42210B;" d="M451.258,260.299c4.792,0,8.677-3.885,8.677-8.677c0-4.792-3.885-8.677-8.677-8.677
		s-8.676,3.885-8.676,8.677C442.582,256.414,446.465,260.299,451.258,260.299z M494.64,190.887c0-4.792-3.885-8.677-8.676-8.677
		c-4.792,0-8.677,3.885-8.677,8.677s3.885,8.677,8.677,8.677C490.755,199.564,494.64,195.679,494.64,190.887z M442.581,390.447
		c0-4.792-3.885-8.677-8.677-8.677c-4.792,0-8.677,3.885-8.677,8.677s3.885,8.676,8.677,8.676
		C438.696,399.122,442.581,395.238,442.581,390.447z M177.775,173.534h65.247c4.792,0,8.677,3.885,8.677,8.677v303.677h104.118
		v-34.707h-60.736c-4.792,0-8.677-3.885-8.677-8.677v-52.059c0-4.792,3.885-8.677,8.677-8.677h43.383v-34.706h-43.383
		c-4.792,0-8.677-3.885-8.677-8.677V182.21c0-4.792,3.885-8.677,8.677-8.677h65.247c11.884,0,21.517-9.634,21.517-21.517V39.222
		c0.192-11.883-9.286-21.67-21.168-21.862c-0.116-0.002-0.233-0.003-0.35-0.003H178.122c-11.883-0.192-21.67,9.286-21.862,21.168
		c-0.002,0.116-0.003,0.233-0.003,0.35V151.67c-0.192,11.883,9.286,21.67,21.168,21.862
		C177.541,173.533,177.658,173.534,177.775,173.534z M60.816,225.593c4.792,0,8.677-3.885,8.677-8.677
		c0-4.792-3.885-8.677-8.677-8.677s-8.677,3.885-8.677,8.677C52.139,221.708,56.024,225.593,60.816,225.593z M173.609,485.887
		c0-4.792-3.885-8.676-8.677-8.676s-8.677,3.885-8.677,8.676c0,4.792,3.885,8.677,8.677,8.677
		C169.725,494.564,173.609,490.679,173.609,485.887z M43.463,34.711c0,4.792,3.885,8.677,8.677,8.677s8.677-3.885,8.677-8.677
		s-3.885-8.677-8.677-8.677S43.463,29.918,43.463,34.711z M43.463,130.151V59.178c-13.554-4.792-20.657-19.664-15.864-33.217
		S47.262,5.304,60.816,10.097S81.472,29.76,76.68,43.314c-2.62,7.413-8.452,13.244-15.864,15.864v62.297h78.089v-82.6
		c0.047-21.448,17.422-38.823,38.87-38.87h182.206c21.515-0.144,39.073,17.181,39.217,38.696c0,0.058,0.001,0.116,0.001,0.174
		v47.894h86.765c4.792,0,8.676,3.885,8.676,8.677v70.974c13.554,4.792,20.657,19.664,15.864,33.217
		c-4.792,13.554-19.664,20.657-33.217,15.864s-20.657-19.664-15.864-33.217c2.62-7.413,8.452-13.244,15.864-15.864v-62.298h-78.089
		v47.894c0.155,19.956-14.86,36.773-34.706,38.87v52.059h62.297c4.792-13.554,19.664-20.657,33.217-15.864
		s20.657,19.664,15.864,33.217c-4.792,13.554-19.664,20.656-33.217,15.864c-7.413-2.62-13.244-8.452-15.864-15.864h-70.974
		c-4.792,0-8.676-3.885-8.676-8.677v-60.736h-43.383V329.71h43.383c4.792,0,8.676,3.885,8.676,8.677v52.059
		c0,4.792-3.885,8.676-8.676,8.676h-43.383v34.706h60.736c4.792,0,8.677,3.885,8.677,8.676v17.353h52.059v-44.944
		c-13.554-4.792-20.656-19.664-15.864-33.217c4.792-13.554,19.664-20.657,33.217-15.864s20.656,19.664,15.864,33.217
		c-2.62,7.413-8.452,13.244-15.864,15.864v53.621c0,4.792-3.885,8.677-8.677,8.677h-60.736v17.353c0,4.792-3.885,8.677-8.677,8.677
		H243.021c-4.792,0-8.677-3.885-8.677-8.677v-69.412h-60.736v36.268c13.554,4.792,20.657,19.664,15.864,33.217
		c-4.792,13.554-19.664,20.657-33.217,15.864s-20.657-19.664-15.864-33.217c2.62-7.413,8.452-13.244,15.864-15.864v-44.944
		c0-4.792,3.885-8.677,8.677-8.677h69.412V295.005H130.227v26.03c0,4.792-3.885,8.677-8.677,8.677H50.578
		c-4.792,13.554-19.664,20.656-33.217,15.864c-13.554-4.792-20.657-19.664-15.864-33.217s19.664-20.656,33.217-15.864
		c7.413,2.62,13.244,8.452,15.864,15.864h62.297v-86.765H85.284c-4.792,13.554-19.664,20.657-33.217,15.864
		s-20.657-19.664-15.864-33.217c4.792-13.554,19.664-20.657,33.217-15.864c7.413,2.62,13.244,8.452,15.864,15.864h36.268
		c4.792,0,8.677,3.885,8.677,8.677v60.736h104.118v-86.765h-56.57c-21.448-0.048-38.823-17.422-38.87-38.87V138.83H52.139
		C47.348,138.828,43.463,134.944,43.463,130.151z M26.11,329.711c4.792,0,8.677-3.885,8.677-8.677s-3.885-8.677-8.677-8.677
		s-8.677,3.885-8.677,8.677S21.318,329.711,26.11,329.711z"/>
</g>
<path style="fill:#FFF8EF;" d="M362.323,17.358L194.26,24.906c-11.625,0.514-20.755,10.142-20.65,21.778v5.38
	c0-4.792,3.885-8.677,8.677-8.677h173.529c4.792,0,8.677,3.885,8.677,8.677v52.059c0,4.792-3.885,8.677-8.677,8.677H182.286
	c-4.792,0-8.677-3.885-8.677-8.677v22.646c0.028,11.723,8.901,21.533,20.563,22.733l41.647,4.164
	c13.954,1.384,24.579,13.135,24.554,27.158v268.97c-0.056,15.406,11.72,28.277,27.071,29.587
	c26.636,2.256,63.859,5.466,68.371,6.247v-34.445h-60.736c-4.792,0-8.677-3.885-8.677-8.677v-52.059
	c0-4.792,3.885-8.677,8.677-8.677h43.383v-34.706h-43.383c-4.792,0-8.677-3.885-8.677-8.677V182.21c0-4.792,3.885-8.677,8.677-8.677
	h65.247c11.884,0,21.517-9.634,21.517-21.517V39.222C382.119,27.928,373.577,18.36,362.323,17.358z"/>
<path style="fill:#1D9AAE;" d="M190.962,60.739l2.863,8.677c3.523,10.551,13.104,17.901,24.207,18.568l129.107,7.462H190.962V60.739
	z"/>
<g>
</g>
<g>
</g>
<g>
</g>
<g>
</g>
<g>
</g>
<g>
</g>
<g>
</g>
<g>
</g>
<g>
</g>
<g>
</g>
<g>
</g>
<g>
</g>
<g>
</g>
<g>
</g>
<g>
</g>
</svg>
