<?xml version="1.0" encoding="iso-8859-1"?>
<!-- Generator: Adobe Illustrator 19.0.0, SVG Export Plug-In . SVG Version: 6.00 Build 0)  -->
<svg version="1.1" id="Layer_1" xmlns="http://www.w3.org/2000/svg" xmlns:xlink="http://www.w3.org/1999/xlink" x="0px" y="0px"
	 viewBox="0 0 512 512" style="enable-background:new 0 0 512 512;" xml:space="preserve">
<g>
	<g>
		<path d="M429.87,209.425c-42.087-29.957-91.961-47.062-143.575-49.24l-93.742-3.957l-11.854-29.221
			c7.979,0.909,15.879-0.072,23.382-3.116c27.117-11,40.14-46.21,26.137-80.727c-13.307-32.802-46.467-51.271-74.99-39.702
			c-27.233,11.046-40.078,46.36-26.136,80.727c1.681,4.143,29.854,70.621,29.854,70.621s-72.463-4.177-76.918-4.365
			c-36.103-1.505-65.957,21.775-67.223,51.777c-1.29,30.585,27.692,57.327,65.963,57.327c34.593,0,62.657-22.776,63.883-51.849
			c0.335-7.951-1.422-15.821-4.979-23.068l31.919,1.347l33.446,82.45h57.678l-6.46-15.926c-1.495-3.684-5.693-5.459-9.377-3.964
			l-14.492,5.88l-27.187-67.02l71.889,3.033l-0.66,15.626c-0.168,3.972,2.917,7.328,6.889,7.496l143.067,6.038
			c2.481,0.105,4.734-1.434,5.538-3.782C432.726,213.463,431.891,210.866,429.87,209.425z M80.767,225.691
			c-18.536,0-32.591-11.155-32.132-22.039c0.444-10.525,14.207-19.416,30.052-19.416c17.684,0,32.609,10.756,32.133,22.04
			C110.376,216.8,96.613,225.691,80.767,225.691z M160.469,71.461c-6.642-16.371-2.222-32.682,7.488-36.621
			c9.524-3.862,24.177,4.519,30.885,21.054c6.646,16.383,2.214,32.686-7.488,36.621C181.83,96.377,167.177,87.995,160.469,71.461z"
			/>
	</g>
</g>
<g>
	<g>
		<path d="M136.422,379.879h-12.248v26.102h12.248c6.928,0,11.133-3.959,11.133-12.371v-1.36
			C147.555,383.838,143.349,379.879,136.422,379.879z"/>
	</g>
</g>
<g>
	<g>
		<path d="M206.812,379.879h-12.248v23.009h12.248c6.927,0,11.133-2.845,11.133-11.505S213.74,379.879,206.812,379.879z"/>
	</g>
</g>
<g>
	<g>
		<path d="M483.741,302.291H28.259c-9.857,0-17.849,7.991-17.849,17.849v174.01c0,9.858,7.992,17.849,17.849,17.849h455.482
			c9.859,0,17.849-7.991,17.849-17.849V320.14C501.59,310.282,493.599,302.291,483.741,302.291z M136.421,420.827h-12.248v26.72
			c0,3.959-4.824,5.939-9.648,5.939c-4.824,0-9.649-1.979-9.649-5.939v-78.677c0-3.092,2.845-5.814,7.174-5.814h25.608
			c16.329,0,29.194,7.669,29.194,28.452v0.618h0.001C166.853,412.91,153.493,420.827,136.421,420.827z M225.863,454.228
			c-2.474,0-4.824-0.99-6.186-3.587l-16.948-32.906h-8.164v29.812c0,3.959-4.824,5.939-9.648,5.939
			c-4.824,0-9.649-1.979-9.649-5.939v-78.677c0-3.092,2.35-5.814,5.939-5.814h25.607c16.947,0,30.432,6.309,30.432,26.473
			c0,13.855-6.309,21.773-14.969,25.113l15.093,27.339c0.495,0.742,0.618,1.608,0.618,2.227
			C237.986,449.031,231.553,454.228,225.863,454.228z M266.813,447.547c0,3.959-4.824,5.939-9.648,5.939
			c-4.824,0-9.649-1.979-9.649-5.939v-78.677c0-4.082,4.825-5.814,9.649-5.814c4.824,0,9.648,1.732,9.648,5.814V447.547z
			 M309.739,437.403c9.896,0,10.515-7.546,10.886-12.371c0.37-4.577,4.577-5.814,9.525-5.814c6.68,0,9.773,1.732,9.773,9.154
			c0,16.452-13.36,25.855-31.05,25.855c-16.205,0-29.689-7.918-29.689-29.195V392.25c0-21.278,13.484-29.195,29.689-29.195
			c17.69,0,31.05,8.907,31.05,24.618c0,7.423-3.092,9.154-9.649,9.154c-5.196,0-9.401-1.36-9.648-5.814
			c-0.123-3.217-0.495-11.133-11.01-11.133c-7.051,0-11.133,3.959-11.133,12.371v32.782
			C298.483,433.444,302.564,437.403,309.739,437.403z M387.554,400.786v0.001c3.711,0,5.814,3.587,5.814,7.546
			c0,3.34-1.732,7.299-5.814,7.299h-18.557v21.03h33.154c3.711,0,5.814,3.959,5.814,8.536c0,3.959-1.732,8.288-5.814,8.288h-44.039
			c-4.206,0-8.412-1.979-8.412-5.939v-78.553c0-3.959,4.206-5.939,8.412-5.939h44.039c4.082,0,5.814,4.33,5.814,8.289
			c0,4.577-2.103,8.536-5.814,8.536h-33.154v20.906H387.554z"/>
	</g>
</g>
<g>
</g>
<g>
</g>
<g>
</g>
<g>
</g>
<g>
</g>
<g>
</g>
<g>
</g>
<g>
</g>
<g>
</g>
<g>
</g>
<g>
</g>
<g>
</g>
<g>
</g>
<g>
</g>
<g>
</g>
</svg>
