<?xml version="1.0" encoding="iso-8859-1"?>
<!-- Generator: Adobe Illustrator 19.0.0, SVG Export Plug-In . SVG Version: 6.00 Build 0)  -->
<svg version="1.1" id="Layer_1" xmlns="http://www.w3.org/2000/svg" xmlns:xlink="http://www.w3.org/1999/xlink" x="0px" y="0px"
	 viewBox="0 0 512.015 512.015" style="enable-background:new 0 0 512.015 512.015;" xml:space="preserve">
<g>
	<g>
		<path d="M1.811,298.374v138.653h138.653V298.374H1.811z M94.247,390.809H48.029v-46.218h46.218V390.809z"/>
	</g>
</g>
<g>
	<g>
		<path d="M186.682,298.374v138.653h138.653V298.374H186.682z M279.118,390.809H232.9v-46.218h46.218V390.809z"/>
	</g>
</g>
<g>
	<g>
		<path d="M371.553,298.374v138.653h138.653V298.374H371.553z M463.989,390.809h-46.218v-46.218h46.218V390.809z"/>
	</g>
</g>
<g>
	<g>
		<rect x="232.9" y="74.988" width="46.218" height="146.356"/>
	</g>
</g>
<g>
	<g>
		
			<rect x="28.331" y="159.722" transform="matrix(0.7071 -0.7071 0.7071 0.7071 -132.9733 97.6929)" width="46.217" height="99.275"/>
	</g>
</g>
<g>
	<g>
		
			<rect x="410.938" y="186.242" transform="matrix(0.7071 -0.7071 0.7071 0.7071 -13.1335 386.9934)" width="99.275" height="46.217"/>
	</g>
</g>
<g>
</g>
<g>
</g>
<g>
</g>
<g>
</g>
<g>
</g>
<g>
</g>
<g>
</g>
<g>
</g>
<g>
</g>
<g>
</g>
<g>
</g>
<g>
</g>
<g>
</g>
<g>
</g>
<g>
</g>
</svg>
