<?xml version="1.0" encoding="iso-8859-1"?>
<!-- Generator: Adobe Illustrator 19.0.0, SVG Export Plug-In . SVG Version: 6.00 Build 0)  -->
<svg version="1.1" id="Layer_1" xmlns="http://www.w3.org/2000/svg" xmlns:xlink="http://www.w3.org/1999/xlink" x="0px" y="0px"
	 viewBox="0 0 512 512" style="enable-background:new 0 0 512 512;" xml:space="preserve">
<path style="fill:#FFFFFF;" d="M256,507.608C236.64,498.696,50.664,409.824,50.664,288V68.496c5.416,0.544,15.36,1.312,28.44,1.312
	c42.568,0,121.497-8.416,176.896-64.072c55.4,55.656,134.328,64.072,176.896,64.072c13.08,0,23.025-0.8,28.44-1.312V288
	C461.336,409.865,275.359,498.705,256,507.608z"/>
<g>
	<path style="fill:#939393;" d="M256,11.344c56.24,54.176,134.401,62.464,176.896,62.464c10.248,0,18.616-0.471,24.44-0.936v215.128
		c0,116.496-175.2,202.976-201.336,215.2c-26.096-12.216-201.336-98.617-201.336-215.2V72.864c5.824,0.471,14.192,0.936,24.44,0.936
		C121.599,73.808,199.76,65.52,256,11.344 M256,0C201.808,56.944,122.936,65.808,79.104,65.808C68.263,65.9,57.427,65.296,46.663,64
		v224C46.663,420,256,512,256,512s209.337-92,209.337-224V64c-10.764,1.295-21.6,1.9-32.44,1.808
		C389.064,65.808,310.192,56.952,256,0z"/>
	<rect x="145.568" y="286.137" style="fill:#939393;" width="220.858" height="8"/>
	<rect x="145.568" y="329.963" style="fill:#939393;" width="220.858" height="8"/>
	<rect x="145.568" y="373.789" style="fill:#939393;" width="220.858" height="8"/>
</g>
<path style="fill:#E21B1B;" d="M248.336,239.76V220.4c-11.35-0.131-22.48-3.154-32.336-8.784l5.392-18.76
	c9.435,5.594,20.168,8.628,31.136,8.8c12.568,0,21.16-6.184,21.16-15.776c0-8.976-6.984-14.768-21.76-20.16
	c-20.952-7.584-34.52-17.168-34.52-35.728c0-17.168,12-30.336,32.136-33.928V76.496h16.368v18.56
	c9.556,0.103,18.967,2.353,27.536,6.584L288.054,120c-8.377-4.396-17.684-6.725-27.144-6.792c-13.968,0-18.961,7.2-18.961,13.976
	c0,8.176,7.2,12.8,24.152,19.552c22.352,8.384,32.336,19.2,32.336,36.92c0,16.968-11.784,31.936-33.736,35.528v20.576
	L248.336,239.76L248.336,239.76z"/>
<path d="M359.328,198.745v-8.88c-5.204-0.047-10.309-1.424-14.832-4l2.48-8.6c4.331,2.553,9.254,3.931,14.281,4
	c5.769,0,9.704-2.84,9.704-7.2c0-4.128-3.2-6.776-9.984-9.248c-9.6-3.48-15.832-7.872-15.832-16.384
	c0.141-8.23,6.521-15.002,14.728-15.632v-8.952h7.504v8.512c4.384,0.047,8.7,1.078,12.632,3.016l-2.472,8.432
	c-3.844-2.019-8.114-3.089-12.456-3.12c-6.4,0-8.695,3.296-8.695,6.4c0,3.76,3.288,5.856,11.08,8.976
	c10.248,3.84,14.832,8.8,14.832,16.936c-0.18,8.613-6.887,15.674-15.48,16.296v9.432L359.328,198.745z"/>
<path d="M146.664,198.745v-8.88c-5.204-0.047-10.309-1.424-14.832-4l2.48-8.6c4.331,2.553,9.253,3.931,14.281,4
	c5.769,0,9.704-2.84,9.704-7.2c0-4.128-3.2-6.776-9.984-9.248c-9.6-3.48-15.832-7.872-15.832-16.384
	c0.14-8.227,6.516-14.998,14.72-15.632v-8.952h7.504v8.512c4.384,0.047,8.7,1.078,12.632,3.016l-2.472,8.432
	c-3.844-2.019-8.114-3.089-12.456-3.12c-6.4,0-8.696,3.296-8.696,6.4c0,3.76,3.288,5.856,11.08,8.976
	c10.248,3.84,14.832,8.8,14.832,16.936c-0.18,8.613-6.887,15.674-15.48,16.296v9.432L146.664,198.745z"/>
<g>
</g>
<g>
</g>
<g>
</g>
<g>
</g>
<g>
</g>
<g>
</g>
<g>
</g>
<g>
</g>
<g>
</g>
<g>
</g>
<g>
</g>
<g>
</g>
<g>
</g>
<g>
</g>
<g>
</g>
</svg>
