<?xml version="1.0" encoding="iso-8859-1"?>
<!-- Generator: Adobe Illustrator 18.0.0, SVG Export Plug-In . SVG Version: 6.00 Build 0)  -->
<!DOCTYPE svg PUBLIC "-//W3C//DTD SVG 1.1//EN" "http://www.w3.org/Graphics/SVG/1.1/DTD/svg11.dtd">
<svg version="1.1" id="Capa_1" xmlns="http://www.w3.org/2000/svg" xmlns:xlink="http://www.w3.org/1999/xlink" x="0px" y="0px"
	 viewBox="0 0 64.187 64.187" style="enable-background:new 0 0 64.187 64.187;" xml:space="preserve">
<path style="fill:#231F20;" d="M64.067,52.321l-5.388-34.527c-0.722-3.916-2.814-5.819-6.397-5.819h-6.258
	C45.745,6.156,40.938,1.503,35.05,1.503h-5.975c-5.887,0-10.695,4.652-10.973,10.472h-6.258c-2.104,0-5.626,0-6.402,5.846
	L0.054,52.365c-0.204,1.845,0.172,3.316,1.118,4.373c1.032,1.153,2.673,1.738,4.876,1.738H8.34v3.208c0,0.552,0.448,1,1,1h3.688
	c0.503,0,0.929-0.377,0.992-0.876c0.002-0.019,0.262-1.948,1.479-3.332h33.13c1.217,1.384,1.477,3.312,1.479,3.329
	c0.061,0.502,0.487,0.879,0.993,0.879h3.688c0.552,0,1-0.448,1-1v-3.208h2.292c2.425,0,4.095-0.583,5.107-1.78
	C64.082,55.633,64.378,54.157,64.067,52.321z M29.076,3.503h5.975c4.784,0,8.697,3.756,8.973,8.472h-3
	c-0.269-3.062-2.843-5.472-5.973-5.472h-5.975c-3.13,0-5.704,2.41-5.973,5.472h-3C20.379,7.259,24.292,3.503,29.076,3.503z
	 M38.997,11.975H25.129c0.262-1.954,1.922-3.472,3.947-3.472h5.975C37.075,8.503,38.735,10.021,38.997,11.975z M7.422,18.106
	c0.548-4.131,2.344-4.131,4.422-4.131h40.438c1.9,0,3.753,0.506,4.425,4.154L59.043,33.1h-7.896v-2.458c0-0.552-0.448-1-1-1h-5.333
	c-0.552,0-1,0.448-1,1V33.1h-23.5v-2.458c0-0.552-0.448-1-1-1H13.98c-0.552,0-1,0.448-1,1V33.1H5.083L7.422,18.106z M49.147,31.642
	v5.083h-3.333v-5.083H49.147z M18.313,31.642v5.083H14.98v-5.083H18.313z M12.211,60.683H10.34v-2.208h2.755
	C12.644,59.294,12.36,60.1,12.211,60.683z M53.787,60.683h-1.871c-0.149-0.583-0.433-1.39-0.884-2.208h2.755V60.683z M61.658,55.404
	c-0.601,0.71-1.805,1.071-3.58,1.071H6.048c-1.107,0-2.594-0.186-3.387-1.072c-0.55-0.615-0.758-1.563-0.625-2.774L4.771,35.1h8.209
	v2.625c0,0.552,0.448,1,1,1h5.333c0.552,0,1-0.448,1-1V35.1h23.5v2.625c0,0.552,0.448,1,1,1h5.333c0.552,0,1-0.448,1-1V35.1h8.209
	l2.737,17.542C62.303,53.884,62.157,54.813,61.658,55.404z"/>
<g>
</g>
<g>
</g>
<g>
</g>
<g>
</g>
<g>
</g>
<g>
</g>
<g>
</g>
<g>
</g>
<g>
</g>
<g>
</g>
<g>
</g>
<g>
</g>
<g>
</g>
<g>
</g>
<g>
</g>
</svg>
