<?xml version="1.0" encoding="iso-8859-1"?>
<!-- Generator: Adobe Illustrator 18.0.0, SVG Export Plug-In . SVG Version: 6.00 Build 0)  -->
<!DOCTYPE svg PUBLIC "-//W3C//DTD SVG 1.1//EN" "http://www.w3.org/Graphics/SVG/1.1/DTD/svg11.dtd">
<svg version="1.1" id="Capa_1" xmlns="http://www.w3.org/2000/svg" xmlns:xlink="http://www.w3.org/1999/xlink" x="0px" y="0px"
	 viewBox="0 0 56.415 56.415" style="enable-background:new 0 0 56.415 56.415;" xml:space="preserve">
<g>
	<path d="M52.603,35.864l-1.443-0.277c-0.678-0.13-1.211-0.573-1.463-1.216s-0.162-1.329,0.246-1.886l0.906-1.236
		c0.292-0.397,0.249-0.949-0.1-1.298l-1.958-1.958c-0.339-0.338-0.869-0.389-1.268-0.121l-1.218,0.824
		c-0.331,0.224-0.71,0.343-1.099,0.343c-0.844,0-1.787-0.576-1.956-1.676l-0.233-1.515C42.943,25.361,42.523,25,42.03,25h-2.769
		c-0.479,0-0.892,0.341-0.982,0.812l-0.358,1.864c-0.202,1.052-1.131,1.602-1.943,1.602c-0.389,0-0.769-0.118-1.099-0.342
		l-1.572-1.064c-0.396-0.268-0.928-0.217-1.268,0.121l-1.958,1.958c-0.349,0.349-0.392,0.9-0.1,1.298l0.906,1.237
		c0.408,0.556,0.498,1.243,0.245,1.885c-0.252,0.643-0.785,1.086-1.462,1.216l-1.444,0.277c-0.471,0.091-0.812,0.503-0.812,0.982
		v2.77c0,0.493,0.36,0.913,0.848,0.988l1.516,0.233c0.682,0.105,1.231,0.528,1.507,1.16c0.276,0.633,0.212,1.323-0.175,1.895
		l-0.824,1.217c-0.269,0.396-0.218,0.929,0.121,1.268l1.958,1.959c0.348,0.349,0.899,0.391,1.299,0.1l1.235-0.907
		c0.344-0.252,0.743-0.385,1.157-0.385c0.813,0,1.743,0.551,1.944,1.603l0.278,1.444C38.37,50.66,38.782,51,39.261,51h2.769
		c0.493,0,0.913-0.36,0.988-0.848l0.164-1.065c0.17-1.1,1.113-1.676,1.958-1.676c0.414,0,0.813,0.134,1.157,0.386l0.87,0.638
		c0.396,0.293,0.949,0.25,1.298-0.1l1.958-1.959c0.339-0.339,0.39-0.871,0.12-1.269l-0.824-1.216
		c-0.387-0.571-0.45-1.262-0.175-1.894c0.276-0.633,0.825-1.056,1.508-1.161l1.515-0.233c0.487-0.075,0.848-0.495,0.848-0.988v-2.77
		C53.415,36.366,53.074,35.954,52.603,35.864z M51.415,38.758l-0.667,0.103c-1.354,0.208-2.488,1.082-3.036,2.338
		c-0.548,1.255-0.416,2.681,0.353,3.815l0.361,0.533l-0.768,0.768l-0.178-0.131c-0.688-0.505-1.498-0.772-2.34-0.772
		c-1.979,0-3.634,1.418-3.935,3.371L41.172,49h-1.085l-0.122-0.633c-0.358-1.868-2.003-3.225-3.909-3.225
		c-0.842,0-1.651,0.267-2.34,0.771l-0.544,0.399l-0.768-0.768l0.361-0.533c0.768-1.134,0.899-2.561,0.352-3.815
		c-0.547-1.255-1.682-2.129-3.035-2.337l-0.668-0.103v-1.086l0.633-0.121c1.346-0.259,2.447-1.175,2.947-2.449
		c0.5-1.275,0.315-2.695-0.494-3.799l-0.399-0.545l0.768-0.768l0.889,0.602c0.662,0.448,1.43,0.686,2.22,0.686
		c1.904,0,3.548-1.355,3.908-3.224L40.087,27h1.085l0.103,0.667c0.301,1.953,1.955,3.371,3.934,3.371
		c0.789,0,1.556-0.237,2.219-0.687l0.534-0.361l0.768,0.768l-0.398,0.544c-0.811,1.104-0.996,2.523-0.496,3.799
		c0.501,1.275,1.603,2.191,2.948,2.45l0.632,0.121V38.758z"/>
	<path d="M40.415,33c-2.757,0-5,2.243-5,5s2.243,5,5,5s5-2.243,5-5S43.171,33,40.415,33z M40.415,41c-1.654,0-3-1.346-3-3
		s1.346-3,3-3s3,1.346,3,3S42.069,41,40.415,41z"/>
	<polygon points="0,31.213 25.147,56.414 31.289,50.289 6.115,25.115 	"/>
	<path d="M45.3,0H31.295L7.531,23.702l16.884,16.884v-6.219c0-0.479,0.341-0.892,0.812-0.982l2.28-0.438l-1.466-2.001
		c-0.292-0.397-0.249-0.949,0.1-1.298l5.529-5.529c0.34-0.339,0.87-0.389,1.268-0.121l2.338,1.583l0.525-2.77
		C35.891,22.341,36.303,22,36.783,22h7.82c0.493,0,0.913,0.36,0.988,0.848l0.378,2.453l1.925-1.303
		c0.398-0.268,0.929-0.218,1.268,0.121l4.177,4.178l3.076-3.067V11.089L45.3,0z M42.43,16.87c-2.17,0-3.935-1.765-3.935-3.935
		S40.26,9,42.43,9s3.935,1.766,3.935,3.936S44.6,16.87,42.43,16.87z"/>
</g>
<g>
</g>
<g>
</g>
<g>
</g>
<g>
</g>
<g>
</g>
<g>
</g>
<g>
</g>
<g>
</g>
<g>
</g>
<g>
</g>
<g>
</g>
<g>
</g>
<g>
</g>
<g>
</g>
<g>
</g>
</svg>
