<?xml version="1.0" encoding="iso-8859-1"?>
<!-- Generator: Adobe Illustrator 19.0.0, SVG Export Plug-In . SVG Version: 6.00 Build 0)  -->
<svg version="1.1" id="Layer_1" xmlns="http://www.w3.org/2000/svg" xmlns:xlink="http://www.w3.org/1999/xlink" x="0px" y="0px"
	 viewBox="0 0 512 512" style="enable-background:new 0 0 512 512;" xml:space="preserve">
<g>
	<g>
		<path d="M0,0.001v511.999h512V0.001H0z M481.583,481.582H30.417V30.418h451.166V481.582z"/>
	</g>
</g>
<g>
	<g>
		<path d="M50.695,50.696v106.955h410.609V50.696H50.695z M430.888,127.235H81.112V81.113h349.775V127.235z"/>
	</g>
</g>
<g>
	<g>
		<path d="M366.257,177.933H335.84h-64.63h-30.417h-64.63h-30.417h-95.05v63.238v30.417v32.822v30.417v32.821v30.417v63.238h95.049
			h30.417h64.63h30.417h64.631h30.417h95.049V334.828V304.41v-32.822v-30.417v-63.238H366.257z M145.744,430.887H81.112v-32.821
			h64.631V430.887z M145.744,367.649H81.112v-32.821h64.631V367.649z M145.744,304.41H81.112v-32.822h64.631V304.41z
			 M145.744,241.171H81.112V208.35h64.631V241.171z M240.791,430.887h-64.63v-32.821h64.63V430.887z M240.791,367.649h-64.63
			v-32.821h64.63V367.649z M240.791,304.41h-64.63v-32.822h64.63V304.41z M240.791,241.171h-64.63V208.35h64.63V241.171z
			 M335.839,430.887h-64.63v-32.821h64.63V430.887z M335.839,367.649h-64.63v-32.821h64.63V367.649z M335.839,304.41h-64.63v-32.822
			h64.63V304.41z M335.839,241.171h-64.63V208.35h64.63V241.171z M430.888,430.887h-64.63v-96.059h64.63V430.887z M430.888,304.41
			h-64.631v-32.822h64.631V304.41z M430.888,241.171h-64.631V208.35h64.631V241.171z"/>
	</g>
</g>
<g>
</g>
<g>
</g>
<g>
</g>
<g>
</g>
<g>
</g>
<g>
</g>
<g>
</g>
<g>
</g>
<g>
</g>
<g>
</g>
<g>
</g>
<g>
</g>
<g>
</g>
<g>
</g>
<g>
</g>
</svg>
