<?xml version="1.0" encoding="iso-8859-1"?>
<!-- Generator: Adobe Illustrator 19.0.0, SVG Export Plug-In . SVG Version: 6.00 Build 0)  -->
<svg version="1.1" id="Layer_1" xmlns="http://www.w3.org/2000/svg" xmlns:xlink="http://www.w3.org/1999/xlink" x="0px" y="0px"
	 viewBox="0 0 512 512" style="enable-background:new 0 0 512 512;" xml:space="preserve">
<g>
	<g>
		<path d="M0,0.001v511.999h512V0.001H0z M125.713,470.947H41.052V424.8h84.661V470.947z M125.713,394.383H41.052v-46.149h84.661
			V394.383z M125.713,317.817H41.052v-46.149h84.661V317.817z M125.713,241.251H41.052v-46.149h84.661V241.251z M240.791,470.947
			H156.13V424.8h84.661V470.947z M240.791,394.383H156.13v-46.149h84.661V394.383z M240.791,317.817H156.13v-46.149h84.661V317.817z
			 M240.791,241.251H156.13v-46.149h84.661V241.251z M355.87,470.947h-84.661V424.8h84.661V470.947z M355.87,394.382h-84.661
			v-46.149h84.661V394.382z M355.87,317.817h-84.661v-46.149h84.661V317.817z M355.87,241.251h-84.661v-46.149h84.661V241.251z
			 M470.948,470.946h-84.661V424.8v-30.417v-46.149h84.661V470.946z M470.948,317.817h-84.661v-46.149h84.661V317.817z
			 M470.948,241.251h-84.661v-46.149h84.661V241.251z M470.948,127.235H41.052V41.054h429.896V127.235z"/>
	</g>
</g>
<g>
</g>
<g>
</g>
<g>
</g>
<g>
</g>
<g>
</g>
<g>
</g>
<g>
</g>
<g>
</g>
<g>
</g>
<g>
</g>
<g>
</g>
<g>
</g>
<g>
</g>
<g>
</g>
<g>
</g>
</svg>
