<?xml version="1.0" encoding="iso-8859-1"?>
<!-- Generator: Adobe Illustrator 19.0.0, SVG Export Plug-In . SVG Version: 6.00 Build 0)  -->
<svg version="1.1" id="Layer_1" xmlns="http://www.w3.org/2000/svg" xmlns:xlink="http://www.w3.org/1999/xlink" x="0px" y="0px"
	 viewBox="0 0 512 512" style="enable-background:new 0 0 512 512;" xml:space="preserve">
<g>
	<g>
		<g>
			<path d="M264.533,213.333v-8.459c9.376-1.908,17.834-6.907,24.049-14.249c11.054-13.072,8.549-32.914-5.029-43.473l-19.02-14.794
				V85.847c9.941,3.515,17.067,12.993,17.067,24.137c0,4.713,3.821,8.533,8.533,8.533c4.713,0,8.533-3.82,8.533-8.533
				c0-20.64-14.659-37.858-34.133-41.811v-8.44c0-4.713-3.82-8.533-8.533-8.533c-4.713,0-8.533,3.82-8.533,8.533v8.456
				c-9.376,1.908-17.834,6.907-24.049,14.249c-11.054,13.072-8.549,32.914,5.029,43.473l19.02,14.794v46.511
				c-9.941-3.515-17.067-12.993-17.067-24.137c0-4.713-3.821-8.533-8.533-8.533s-8.533,3.821-8.533,8.533
				c0,20.64,14.659,37.858,34.133,41.811v8.443c0,4.713,3.82,8.533,8.533,8.533C260.713,221.867,264.533,218.046,264.533,213.333z
				 M238.925,112.439c-6.051-4.706-7.154-13.447-2.478-18.978c2.965-3.502,6.767-6.112,11.02-7.614v33.236L238.925,112.439z
				 M273.076,160.624c6.051,4.706,7.154,13.447,2.478,18.978c-2.965,3.502-6.767,6.112-11.02,7.614V153.98L273.076,160.624z"/>
			<path d="M486.4,409.6h-42.667c0-37.703-30.564-68.267-68.267-68.267H264.533v-68.54c71.427-4.407,128-63.724,128-136.26
				C392.533,61.13,331.403,0,256,0S119.467,61.13,119.467,136.533c0,72.536,56.573,131.854,128,136.26v68.54H136.533
				c-37.703,0-68.267,30.564-68.267,68.267H25.6c-4.713,0-8.533,3.82-8.533,8.533v85.333c0,4.713,3.82,8.533,8.533,8.533H128
				c4.713,0,8.533-3.82,8.533-8.533v-85.333c0-4.713-3.82-8.533-8.533-8.533H85.333c0-28.277,22.923-51.2,51.2-51.2h110.933v51.2
				H204.8c-4.713,0-8.533,3.82-8.533,8.533v85.333c0,4.713,3.82,8.533,8.533,8.533h102.4c4.713,0,8.533-3.82,8.533-8.533v-85.333
				c0-4.713-3.82-8.533-8.533-8.533h-42.667v-51.2h110.933c28.277,0,51.2,22.923,51.2,51.2H384c-4.713,0-8.533,3.82-8.533,8.533
				v85.333c0,4.713,3.82,8.533,8.533,8.533h102.4c4.713,0,8.533-3.82,8.533-8.533v-85.333
				C494.933,413.421,491.113,409.6,486.4,409.6z M136.533,136.533c0-65.977,53.489-119.467,119.467-119.467
				s119.467,53.489,119.467,119.467S321.977,256,256,256S136.533,202.511,136.533,136.533z M119.467,426.667v68.267H34.133v-68.267
				H119.467z M298.667,494.933h-85.333v-68.267h85.333V494.933z M477.867,494.933h-85.333v-68.267h85.333V494.933z"/>
			<path d="M51.2,460.8c0,4.713,3.82,8.533,8.533,8.533h34.133c4.713,0,8.533-3.82,8.533-8.533s-3.82-8.533-8.533-8.533H59.733
				C55.021,452.267,51.2,456.087,51.2,460.8z"/>
			<path d="M230.4,460.8c0,4.713,3.82,8.533,8.533,8.533h34.133c4.713,0,8.533-3.82,8.533-8.533s-3.82-8.533-8.533-8.533h-34.133
				C234.221,452.267,230.4,456.087,230.4,460.8z"/>
			<path d="M409.6,460.8c0,4.713,3.821,8.533,8.533,8.533h34.133c4.713,0,8.533-3.82,8.533-8.533s-3.82-8.533-8.533-8.533h-34.133
				C413.421,452.267,409.6,456.087,409.6,460.8z"/>
		</g>
	</g>
</g>
<g>
</g>
<g>
</g>
<g>
</g>
<g>
</g>
<g>
</g>
<g>
</g>
<g>
</g>
<g>
</g>
<g>
</g>
<g>
</g>
<g>
</g>
<g>
</g>
<g>
</g>
<g>
</g>
<g>
</g>
</svg>
