<?xml version="1.0" encoding="iso-8859-1"?>
<!-- Generator: Adobe Illustrator 17.1.0, SVG Export Plug-In . SVG Version: 6.00 Build 0)  -->
<!DOCTYPE svg PUBLIC "-//W3C//DTD SVG 1.1//EN" "http://www.w3.org/Graphics/SVG/1.1/DTD/svg11.dtd">
<svg version="1.1" id="Capa_1" xmlns="http://www.w3.org/2000/svg" xmlns:xlink="http://www.w3.org/1999/xlink" x="0px" y="0px"
	 viewBox="0 0 220.206 220.206" style="enable-background:new 0 0 220.206 220.206;" xml:space="preserve">
<path d="M137.028,59.438c1.63-1.376,2.668-3.432,2.668-5.732c0-2.782-1.519-5.205-3.769-6.5c2.25-1.295,3.769-3.718,3.769-6.5
	c0-4.108-3.304-7.441-7.4-7.495l12.679-21.961c1.34-2.32,1.34-5.18,0-7.5S141.161,0,138.481,0H82.195c-2.68,0-5.155,1.43-6.495,3.75
	c-1.34,2.321-1.34,5.18,0,7.5l12.679,21.961c-4.096,0.054-7.4,3.387-7.4,7.495c0,2.782,1.519,5.205,3.769,6.5
	c-2.25,1.295-3.769,3.718-3.769,6.5c0,2.215,0.966,4.199,2.492,5.572c-27.613,15.196-46.156,52.365-46.156,86.428
	c0,21.887,7.392,40.695,21.374,54.391c13.239,12.967,31.499,20.109,51.414,20.109s38.175-7.142,51.414-20.109
	c13.982-13.696,21.374-32.504,21.374-54.391C182.891,111.764,164.479,74.735,137.028,59.438z M119.455,128.274
	c11.791,0,21.384,9.593,21.384,21.384v0.785c0,11.791-9.593,21.384-21.384,21.384h-1.616v8.212c0,4.142-3.357,7.5-7.5,7.5
	s-7.5-3.358-7.5-7.5v-8.212h-15.5c-4.143,0-7.5-3.358-7.5-7.5s3.357-7.5,7.5-7.5h15.5v-13.553h-1.616
	c-11.791,0-21.384-9.593-21.384-21.384s9.593-21.384,21.384-21.384h1.616V91.04c0-4.142,3.357-7.5,7.5-7.5s7.5,3.358,7.5,7.5v9.467
	h15.5c4.143,0,7.5,3.358,7.5,7.5s-3.357,7.5-7.5,7.5h-15.5v12.768H119.455z M101.222,115.507h1.616v12.768h-1.616
	c-3.521,0-6.384-2.864-6.384-6.384S97.702,115.507,101.222,115.507z M117.838,156.827v-13.553h1.616
	c3.521,0,6.384,2.864,6.384,6.384v0.785c0,3.52-2.863,6.384-6.384,6.384H117.838z"/>
<g>
</g>
<g>
</g>
<g>
</g>
<g>
</g>
<g>
</g>
<g>
</g>
<g>
</g>
<g>
</g>
<g>
</g>
<g>
</g>
<g>
</g>
<g>
</g>
<g>
</g>
<g>
</g>
<g>
</g>
</svg>
