<?xml version="1.0" encoding="iso-8859-1"?>
<!-- Generator: Adobe Illustrator 19.0.0, SVG Export Plug-In . SVG Version: 6.00 Build 0)  -->
<svg version="1.1" id="Layer_1" xmlns="http://www.w3.org/2000/svg" xmlns:xlink="http://www.w3.org/1999/xlink" x="0px" y="0px"
	 viewBox="0 0 475 475" style="enable-background:new 0 0 475 475;" xml:space="preserve">
<g transform="translate(0 -540.36)">
	<g>
		<g>
			<path d="M87.4,540.36H7.5c-4.1,0-7.5,3.4-7.5,7.5v79.9c0,4.1,3.4,7.5,7.5,7.5c4.1,0,7.5-3.4,7.5-7.5v-61.8l67.1,67.1
				c1.5,1.5,3.4,2.2,5.3,2.2c1.9,0,3.8-0.7,5.3-2.2c2.9-2.9,2.9-7.7,0-10.6v0l-67.1-67.1h61.8c4.1,0,7.5-3.4,7.5-7.5
				S91.5,540.36,87.4,540.36z"/>
			<path d="M467.5,540.36L467.5,540.36l-79.9,0c-4.1,0-7.5,3.4-7.5,7.5s3.4,7.5,7.5,7.5h61.8l-67.1,67.1c-2.9,2.9-2.9,7.7,0,10.6
				c1.5,1.5,3.4,2.2,5.3,2.2c1.9,0,3.8-0.7,5.3-2.2l67.1-67.1v61.8c0,4.1,3.4,7.5,7.5,7.5c4.1,0,7.5-3.4,7.5-7.5v-79.9
				C475,543.76,471.6,540.36,467.5,540.36z"/>
			<path d="M87.4,1000.36H25.6l67.1-67.1c2.9-2.9,2.9-7.7,0-10.6c-2.9-2.9-7.7-2.9-10.6,0L15,989.76v-61.8c0-4.1-3.4-7.5-7.5-7.5
				s-7.5,3.4-7.5,7.5v79.9c0,4.1,3.4,7.5,7.5,7.5h79.9c4.1,0,7.5-3.4,7.5-7.5S91.5,1000.36,87.4,1000.36z"/>
			<path d="M467.5,920.46L467.5,920.46c-4.1,0-7.5,3.4-7.5,7.5v61.8l-67.1-67.1c-2.9-2.9-7.7-2.9-10.6,0c-2.9,2.9-2.9,7.7,0,10.6
				l67.1,67.1h-61.8c-4.1,0-7.5,3.4-7.5,7.5s3.4,7.5,7.5,7.5h79.9c4.1,0,7.5-3.4,7.5-7.5v-79.9
				C475,923.86,471.6,920.46,467.5,920.46z"/>
			<path d="M304.7,819.86c-3.4-14.2-11.9-26.9-23.8-35.9c-12-9-27.1-13.7-42.5-13.3h-2.2c-24.7,0-46.1-15.8-50.9-37.5
				c0-0.1,0-0.1,0-0.2c-5.3-21.7,7.5-43.8,30.3-52.5c23.1-8.8,49.8-1.5,63.4,17.5c2.4,3.4,7.1,4.2,10.5,1.7
				c3.4-2.4,4.2-7.1,1.7-10.5c-10.7-15-27.7-24.4-46.1-26.9v-52.3c0-4.1-3.4-7.5-7.5-7.5c-4.1,0-7.5,3.4-7.5,7.5v52.1
				c-6.7,0.5-13.4,2-19.9,4.5c-29.9,11.4-46.5,40.9-39.5,70c6.3,28.5,33.8,49.3,65.5,49.3h2.3c0.1,0,0.1,0,0.2,0
				c24.7-0.7,45.9,14.8,51.4,37.6c4.6,21.4-8.4,43.2-31.1,51.8c-23.1,8.8-49.8,1.5-63.4-17.5c-2.4-3.4-7.1-4.2-10.5-1.7
				c-3.4,2.4-4.2,7.1-1.7,10.5c10.8,15.2,28,24.6,46.6,26.9v52.5c0,4.1,3.4,7.5,7.5,7.5c4.1,0,7.5-3.4,7.5-7.5v-52.2
				c6.5-0.6,13.1-2,19.4-4.4c29.6-11.5,46.6-40.6,40.3-69.3C304.7,819.96,304.7,819.96,304.7,819.86z"/>
		</g>
	</g>
</g>
<g>
</g>
<g>
</g>
<g>
</g>
<g>
</g>
<g>
</g>
<g>
</g>
<g>
</g>
<g>
</g>
<g>
</g>
<g>
</g>
<g>
</g>
<g>
</g>
<g>
</g>
<g>
</g>
<g>
</g>
</svg>
