<?xml version="1.0" encoding="iso-8859-1"?>
<!-- Generator: Adobe Illustrator 19.0.0, SVG Export Plug-In . SVG Version: 6.00 Build 0)  -->
<svg version="1.1" id="Layer_1" xmlns="http://www.w3.org/2000/svg" xmlns:xlink="http://www.w3.org/1999/xlink" x="0px" y="0px"
	 viewBox="0 0 445.244 445.244" style="enable-background:new 0 0 445.244 445.244;" xml:space="preserve">
<g id="XMLID_242_">
	<path id="XMLID_243_" d="M207.622,430.244c0-42.801-34.821-77.622-77.622-77.622c-42.802,0-77.623,34.821-77.623,77.622
		c0,8.284,6.716,15,15,15h125.245C200.906,445.244,207.622,438.528,207.622,430.244z"/>
	<path id="XMLID_244_" d="M130,322.622c19.555,0,36.228-12.542,42.42-30h100.404c6.192,17.458,22.865,30,42.42,30
		c24.813,0,45-20.187,45-45s-20.187-45-45-45c-19.555,0-36.228,12.542-42.42,30h-35.202v-50h47.622c8.284,0,15-6.716,15-15
		c0-42.801-34.821-77.622-77.622-77.622c-42.801,0-77.623,34.821-77.623,77.622c0,8.284,6.716,15,15,15h47.623v50H172.42
		c-6.192-17.458-22.865-30-42.42-30c-24.813,0-45,20.187-45,45S105.187,322.622,130,322.622z"/>
	<path id="XMLID_245_" d="M315.244,352.622c-42.801,0-77.622,34.821-77.622,77.622c0,8.284,6.716,15,15,15h125.245
		c8.284,0,15-6.716,15-15C392.867,387.443,358.046,352.622,315.244,352.622z"/>
	<path id="XMLID_307_" d="M177.622,45c0,24.813,20.187,45,45,45c24.812,0,45-20.187,45-45s-20.188-45-45-45
		C197.81,0,177.622,20.187,177.622,45z"/>
</g>
<g>
</g>
<g>
</g>
<g>
</g>
<g>
</g>
<g>
</g>
<g>
</g>
<g>
</g>
<g>
</g>
<g>
</g>
<g>
</g>
<g>
</g>
<g>
</g>
<g>
</g>
<g>
</g>
<g>
</g>
</svg>
