<?xml version="1.0" encoding="iso-8859-1"?>
<!-- Generator: Adobe Illustrator 19.0.0, SVG Export Plug-In . SVG Version: 6.00 Build 0)  -->
<svg version="1.1" id="Layer_1" xmlns="http://www.w3.org/2000/svg" xmlns:xlink="http://www.w3.org/1999/xlink" x="0px" y="0px"
	 viewBox="0 0 511.991 511.991" style="enable-background:new 0 0 511.991 511.991;" xml:space="preserve">
<g>
	<g>
		<g>
			<path d="M109.357,148.72c5.419-1.835,11.136-3.072,17.173-3.072c29.589,0,53.696,24.107,53.696,53.696
				c0,5.589-1.109,10.88-2.688,15.936c32.021,28.117,70.357,57.493,112.384,81.493c17.365-28.672,33.643-59.627,48.853-92.608
				c-9.301-9.664-15.104-22.741-15.104-37.184c0-29.099,23.296-52.736,52.203-53.547c6.72-19.093,10.944-32.981,12.544-38.443
				V37.317C349.719,13.808,304.493,0.005,256.002,0.005c-78.443,0-148.672,35.52-195.669,91.264l17.899,21.675
				C78.637,113.435,89.922,127.685,109.357,148.72z"/>
			<path d="M431.074,69.74v8.235c0,1.899-0.256,3.797-0.768,5.632c-0.213,0.811-4.949,18.005-14.741,45.717
				c9.579,9.707,15.509,22.997,15.509,37.653c0,29.333-23.659,53.163-52.885,53.632c-15.616,33.963-32.32,66.027-50.197,95.765
				c41.557,19.072,85.675,31.573,130.304,31.573h36.331c11.051-28.587,17.365-59.52,17.365-91.947
				C511.991,182.572,480.759,116.46,431.074,69.74z"/>
			<path d="M178.005,409.75c0-29.611,24.107-53.717,53.717-53.717c5.696,0,11.072,1.131,16.235,2.795
				c6.443-8.555,12.928-16.981,19.136-26.091c-44.117-25.365-84.032-55.872-117.419-85.141c-7.04,3.392-14.827,5.461-23.147,5.461
				c-29.611,0-53.717-24.085-53.717-53.696c0-7.872,1.792-15.296,4.864-22.037c-20.395-22.101-32.107-36.885-32.661-37.611
				L34.923,127.51C12.864,165.334,0,209.132,0,256.001c0,92.672,49.664,173.76,123.605,218.688l31.403-17.941
				c9.493-7.531,18.859-15.872,28.096-24.533C179.904,425.345,178.005,417.793,178.005,409.75z"/>
			<path d="M304.992,352.647c-8.043,11.947-16.384,23.253-24.811,34.347c3.264,6.933,5.227,14.592,5.227,22.741
				c0,29.611-24.085,53.717-53.696,53.717c-5.824,0-11.328-1.173-16.576-2.901c-11.456,10.901-23.104,21.333-34.965,30.677
				c-0.811,0.661-1.685,1.237-2.603,1.771l-7.04,4.011c26.773,9.536,55.467,14.976,85.461,14.976
				c91.733,0,172.117-48.661,217.323-121.365h-15.019C405.067,390.621,353.12,375.431,304.992,352.647z"/>
		</g>
	</g>
</g>
<g>
</g>
<g>
</g>
<g>
</g>
<g>
</g>
<g>
</g>
<g>
</g>
<g>
</g>
<g>
</g>
<g>
</g>
<g>
</g>
<g>
</g>
<g>
</g>
<g>
</g>
<g>
</g>
<g>
</g>
</svg>
